# xmcd
#
# Track frame offsets: 
#        183
#        20890
#        42875
#        68463
#        73735
#        90073
#        104725
#        121665
#        143850
#        168383
#        187348
#        209198
#
# Disc length: 3014 seconds
#
# Revision: 2
# Processed by: cddbd v1.5.2PL0 Copyright (c) Steve Scherf et al.
# Submitted via: ExactAudioCopy v0.99pb3
#
DISCID=b10bc40c
DTITLE=Nina Simone - My Baby Just Cares For Me
DYEAR=1900
DGENRE=Blues
TTITLE0=My Baby Just Cares For Me (live)
TTITLE1=Pirate Jenny (live)
TTITLE2=For a While (live)
TTITLE3=You Took My Teeth (live)
TTITLE4=Sugar in My Bowl (live)
TTITLE5=Backlash Blues (live)
TTITLE6=Do What You Gotta Do (live)
TTITLE7=Mississippi Goddam (live)
TTITLE8=See Lime Woman (live)
TTITLE9=The Other Woman (live)
TTITLE10=Four Women (live)
TTITLE11=I Sing Just To Know That I'm Alive (live)
EXTD=
EXTT0=
EXTT1=
EXTT2=
EXTT3=
EXTT4=
EXTT5=
EXTT6=
EXTT7=
EXTT8=
EXTT9=
EXTT10=
EXTT11=
PLAYORDER=
